<svg id="svg" version="1.1" xmlns="http://www.w3.org/2000/svg" xmlns:xlink="http://www.w3.org/1999/xlink" width="400" height="400" viewBox="0, 0, 400,400"><g id="svgg"><path id="path0" d="M62.055 139.192 C 52.856 140.235,47.576 145.273,45.763 154.735 C 44.940 159.028,44.958 235.888,45.783 240.515 C 47.650 250.986,54.391 256.000,66.600 256.000 C 82.096 256.000,88.000 249.140,88.000 231.136 L 88.000 223.600 81.000 223.600 L 74.000 223.600 73.999 231.100 C 73.998 241.821,73.265 243.000,66.600 243.000 C 62.546 243.000,61.176 242.443,60.106 240.361 C 59.310 238.812,59.383 155.979,60.182 154.434 C 61.054 152.749,63.020 152.000,66.573 152.000 C 73.220 152.000,73.736 152.791,74.000 163.381 L 74.200 171.400 81.000 171.400 L 87.800 171.400 87.925 164.200 C 88.260 144.925,80.200 137.133,62.055 139.192 M212.955 139.200 C 205.540 140.286,200.332 144.395,197.746 151.200 L 196.606 154.200 196.603 166.800 L 196.600 179.400 197.763 182.949 C 199.251 187.487,200.184 188.843,210.497 201.441 C 224.453 218.488,223.600 216.636,223.600 229.875 C 223.600 241.740,223.160 242.709,217.588 243.108 C 211.370 243.553,210.658 242.353,210.400 231.000 L 210.200 222.200 203.400 222.200 L 196.600 222.200 196.609 231.200 C 196.620 242.195,197.309 245.154,200.929 249.754 C 207.250 257.784,224.824 258.233,232.184 250.552 C 236.724 245.814,237.400 242.916,237.400 228.200 C 237.400 210.384,237.938 211.702,223.058 193.075 C 210.214 176.997,211.052 178.861,210.880 166.000 C 210.703 152.775,211.159 151.839,217.659 152.086 C 223.119 152.293,223.600 153.305,223.600 164.587 L 223.600 172.800 230.600 172.800 C 234.450 172.800,237.600 172.658,237.600 172.485 C 237.600 172.311,237.675 169.206,237.767 165.585 C 238.039 154.834,237.215 150.552,234.050 146.267 C 229.857 140.592,221.822 137.900,212.955 139.200 M108.193 140.892 C 108.089 141.171,107.288 146.620,106.412 153.000 C 105.537 159.380,104.454 167.120,104.007 170.200 C 102.681 179.333,100.499 194.993,98.795 207.600 C 97.917 214.090,96.934 221.020,96.609 223.000 C 96.285 224.980,95.653 229.390,95.204 232.800 C 93.841 243.173,93.216 247.648,92.651 251.100 L 92.111 254.400 99.011 254.400 L 105.911 254.400 106.145 253.100 C 106.273 252.385,106.745 248.830,107.192 245.200 C 107.640 241.570,108.203 237.115,108.444 235.300 L 108.883 232.000 116.389 232.000 L 123.896 232.000 124.110 233.700 C 125.279 243.002,126.450 252.043,126.623 253.100 L 126.836 254.400 133.618 254.400 C 140.129 254.400,140.400 254.368,140.400 253.602 C 140.400 253.162,139.849 249.067,139.175 244.502 C 138.502 239.936,137.436 232.420,136.808 227.800 C 136.179 223.180,135.016 214.810,134.223 209.200 C 133.430 203.590,131.789 191.890,130.577 183.200 C 129.365 174.510,127.999 164.790,127.542 161.600 C 127.085 158.410,126.235 152.380,125.654 148.200 L 124.598 140.600 116.490 140.492 C 110.219 140.408,108.339 140.499,108.193 140.892 M146.700 140.634 C 146.535 140.799,146.400 166.467,146.400 197.676 L 146.400 254.418 153.500 254.309 L 160.600 254.200 160.703 229.500 L 160.806 204.800 164.130 204.800 C 169.775 204.800,172.630 206.165,174.127 209.577 C 174.422 210.250,174.662 216.617,174.829 228.200 C 175.107 247.448,175.164 247.942,177.587 252.178 L 178.859 254.400 185.407 254.400 L 191.956 254.400 191.025 252.294 C 189.146 248.045,188.800 244.047,188.800 226.549 C 188.800 205.675,188.502 204.476,182.589 201.565 L 179.933 200.257 181.067 199.687 C 187.544 196.426,187.981 194.619,187.992 171.033 C 188.003 147.643,187.129 144.805,178.913 141.551 C 176.544 140.613,147.546 139.787,146.700 140.634 M292.269 140.956 C 287.079 142.397,284.016 146.892,283.517 153.800 L 283.401 155.400 287.043 155.514 L 290.685 155.629 290.915 153.403 C 291.210 150.547,292.295 148.345,293.747 147.656 C 299.844 144.762,301.319 156.901,296.218 167.990 C 293.999 172.813,285.490 190.395,284.185 192.854 C 283.346 194.433,283.200 195.249,283.200 198.354 L 283.200 202.000 295.000 202.000 L 306.800 202.000 306.800 198.600 L 306.800 195.200 298.800 195.200 C 294.400 195.200,290.800 195.132,290.800 195.050 C 290.800 194.800,294.082 187.853,298.193 179.400 C 300.334 175.000,302.542 170.410,303.100 169.200 C 310.773 152.574,304.966 137.432,292.269 140.956 M318.413 145.100 C 317.701 147.025,316.662 149.770,316.104 151.200 C 315.546 152.630,314.678 154.970,314.175 156.400 C 313.672 157.830,312.159 161.970,310.811 165.600 C 304.882 181.573,305.159 180.642,305.285 184.175 L 305.400 187.400 312.500 187.509 L 319.600 187.618 319.600 194.809 L 319.600 202.000 323.191 202.000 L 326.782 202.000 326.891 194.708 L 327.000 187.415 328.700 187.538 L 330.400 187.661 330.400 184.031 L 330.400 180.400 328.600 180.400 L 326.800 180.400 326.800 161.000 L 326.800 141.600 323.253 141.600 L 319.706 141.600 318.413 145.100 M172.711 154.223 L 173.600 154.845 173.600 172.691 C 173.600 194.263,174.428 192.000,166.538 192.000 L 160.800 192.000 160.800 172.800 L 160.800 153.600 166.311 153.600 C 170.651 153.600,172.011 153.732,172.711 154.223 M319.600 170.600 L 319.600 180.400 315.757 180.400 C 312.255 180.400,311.940 180.338,312.200 179.700 C 312.357 179.315,312.997 177.560,313.621 175.800 C 317.885 163.787,319.040 160.800,319.424 160.800 C 319.521 160.800,319.600 165.210,319.600 170.600 M118.778 186.400 C 119.888 196.190,121.077 206.450,121.420 209.200 C 121.764 211.950,122.080 215.280,122.122 216.600 L 122.200 219.000 116.492 219.111 C 109.499 219.247,110.001 220.186,111.328 209.458 C 111.904 204.806,112.658 198.300,113.005 195.000 C 113.352 191.700,114.067 185.580,114.594 181.400 C 115.122 177.220,115.678 172.483,115.831 170.874 C 116.300 165.926,116.688 167.971,118.778 186.400 M369.797 257.146 C 361.501 260.915,364.182 273.200,373.301 273.200 C 378.692 273.200,382.045 269.282,381.468 263.657 C 380.908 258.187,374.892 254.831,369.797 257.146 M375.874 258.025 C 379.809 259.508,381.538 264.516,379.470 268.437 C 376.959 273.197,369.723 273.283,366.970 268.585 C 363.531 262.717,369.510 255.625,375.874 258.025 M369.773 260.527 C 369.085 262.320,369.814 269.402,370.700 269.528 C 371.489 269.640,371.600 269.480,371.600 268.228 C 371.600 266.153,373.561 266.134,374.896 268.195 C 376.379 270.484,377.865 270.024,376.526 267.690 C 375.878 266.562,375.886 266.471,376.726 265.404 C 378.932 262.598,376.660 260.000,372.000 260.000 C 370.694 260.000,369.903 260.187,369.773 260.527 M374.826 262.014 C 376.659 262.995,375.478 265.200,373.120 265.200 L 371.600 265.200 371.600 263.400 C 371.600 261.460,372.816 260.938,374.826 262.014 M99.900 399.900 C 154.955 399.956,245.045 399.956,300.100 399.900 C 355.155 399.844,310.110 399.798,200.000 399.798 C 89.890 399.798,44.845 399.844,99.900 399.900 " stroke="none" fill="#f5f9fa" fill-rule="evenodd"></path><path id="path1" d="M-0.000 199.800 L 0.000 399.201 199.700 399.100 L 399.400 399.000 399.400 199.800 L 399.400 0.600 199.700 0.500 L -0.000 0.399 -0.000 199.800 M346.436 116.540 C 352.833 118.500,357.736 123.681,359.171 130.000 C 359.764 132.608,359.750 263.238,359.156 265.400 C 357.266 272.288,352.247 277.234,345.589 278.768 C 342.527 279.474,36.291 279.340,33.959 278.633 C 27.786 276.759,23.546 272.832,21.328 266.936 C 20.440 264.575,19.951 135.458,20.811 130.419 C 21.890 124.098,27.282 118.246,33.600 116.540 C 36.404 115.783,343.965 115.783,346.436 116.540 M36.400 124.677 C 33.550 125.159,30.964 127.394,29.625 130.533 C 28.803 132.459,28.800 132.705,28.800 197.622 L 28.800 262.777 29.747 264.918 C 30.716 267.110,33.657 270.000,34.918 270.000 C 35.267 270.000,35.664 270.180,35.800 270.400 C 35.964 270.665,72.805 270.800,145.025 270.800 L 254.002 270.800 253.901 197.700 L 253.800 124.600 145.600 124.554 C 86.090 124.529,36.950 124.584,36.400 124.677 M262.601 125.289 C 262.480 125.790,262.430 146.900,262.490 172.200 L 262.600 218.200 267.992 218.312 C 270.958 218.374,273.554 218.594,273.761 218.801 C 273.996 219.036,271.934 221.412,268.269 225.130 L 262.400 231.084 262.400 241.142 C 262.400 247.590,262.544 251.200,262.801 251.200 C 263.021 251.200,270.536 243.815,279.501 234.789 L 295.800 218.377 307.400 218.489 C 316.118 218.572,319.000 218.720,319.000 219.082 C 319.000 219.347,307.570 231.047,293.600 245.082 L 268.200 270.600 278.683 270.707 L 289.166 270.813 315.257 244.607 L 341.349 218.400 346.074 218.400 C 349.577 218.400,350.805 218.271,350.820 217.900 C 350.832 217.625,350.823 197.979,350.801 174.242 C 350.757 126.966,350.933 130.346,348.365 127.421 C 345.687 124.371,349.375 124.613,303.710 124.489 L 262.821 124.378 262.601 125.289 M75.558 139.776 C 85.322 143.130,87.954 147.947,88.300 163.100 L 88.503 172.000 81.484 172.000 C 72.206 172.000,73.200 173.031,73.200 163.411 C 73.200 153.943,73.122 153.721,69.365 152.536 C 66.921 151.766,63.663 152.143,61.711 153.422 C 59.512 154.862,59.580 153.347,59.694 198.231 L 59.800 239.662 61.245 240.986 C 63.432 242.990,68.154 243.352,71.275 241.756 C 72.950 240.898,72.988 240.702,73.200 231.800 L 73.400 223.400 80.949 223.291 L 88.497 223.182 88.294 231.891 C 87.876 249.753,83.006 255.655,68.164 256.286 C 55.786 256.812,48.982 252.840,45.748 243.200 C 44.841 240.495,44.351 161.087,45.205 155.000 C 46.450 146.113,52.374 140.086,61.000 138.928 C 61.880 138.809,62.690 138.621,62.800 138.508 C 63.406 137.887,72.767 138.817,75.558 139.776 M224.800 139.533 C 230.296 141.435,233.362 143.823,235.681 148.007 C 238.017 152.223,238.187 153.290,238.194 163.800 L 238.200 173.400 230.800 173.400 L 223.400 173.400 223.200 164.400 C 222.968 153.976,222.880 153.689,219.544 152.582 C 216.403 151.538,212.983 152.513,211.807 154.787 C 210.920 156.502,210.926 173.773,211.814 176.627 C 212.619 179.213,214.437 181.722,225.168 195.056 C 234.886 207.133,236.642 209.994,237.546 215.233 C 238.119 218.553,238.147 238.010,237.584 240.880 C 236.249 247.676,230.919 253.828,225.000 255.405 C 224.340 255.581,223.530 255.799,223.200 255.890 C 216.015 257.861,205.561 255.296,201.160 250.480 C 196.892 245.810,196.355 243.793,196.109 231.491 L 195.910 221.582 203.255 221.691 L 210.600 221.800 210.800 230.600 C 211.053 241.750,211.447 242.530,216.839 242.577 C 222.785 242.629,223.276 241.592,223.119 229.320 C 222.971 217.746,222.888 217.463,217.708 211.068 C 215.779 208.686,213.730 206.128,213.155 205.384 C 212.580 204.640,211.472 203.260,210.693 202.316 C 195.624 184.063,195.782 184.466,196.108 165.058 C 196.343 151.020,197.075 148.424,202.112 143.761 C 207.357 138.905,217.515 137.012,224.800 139.533 M125.275 141.800 C 125.560 143.443,126.598 151.037,127.024 154.600 C 127.155 155.700,127.604 158.940,128.021 161.800 C 128.438 164.660,129.059 168.980,129.401 171.400 C 129.742 173.820,130.308 177.780,130.658 180.200 C 131.007 182.620,131.360 185.320,131.441 186.200 C 131.649 188.439,132.364 193.421,132.820 195.800 C 133.149 197.520,134.380 206.344,134.995 211.400 C 135.377 214.538,136.342 221.487,137.162 227.000 C 138.287 234.568,139.115 240.546,139.406 243.200 C 139.727 246.130,140.798 253.221,141.052 254.100 C 141.239 254.749,140.712 254.800,133.854 254.800 C 127.150 254.800,126.435 254.734,126.251 254.100 C 126.139 253.715,125.848 251.600,125.605 249.400 C 124.850 242.588,123.565 233.067,123.354 232.725 C 123.072 232.270,109.700 232.315,109.417 232.773 C 109.290 232.978,108.844 235.633,108.425 238.673 C 107.717 243.816,107.534 245.314,106.971 250.600 C 106.854 251.700,106.663 253.095,106.547 253.700 L 106.336 254.800 99.113 254.800 L 91.890 254.800 92.146 252.100 C 92.288 250.615,92.578 248.230,92.791 246.800 C 93.004 245.370,93.461 242.040,93.807 239.400 C 94.153 236.760,94.688 233.070,94.997 231.200 C 95.560 227.793,96.117 223.800,97.593 212.600 C 98.028 209.300,98.752 204.170,99.201 201.200 C 100.143 194.980,100.675 191.120,101.214 186.600 C 101.423 184.840,101.947 181.060,102.377 178.200 C 103.702 169.388,104.681 162.436,105.391 156.800 C 106.149 150.783,107.522 141.781,107.847 140.692 C 108.042 140.039,108.719 139.993,116.528 140.092 L 124.997 140.200 125.275 141.800 M178.543 140.927 C 182.368 142.227,185.317 144.800,186.880 148.200 C 187.795 150.190,187.801 150.301,187.927 170.400 C 188.085 195.312,187.944 196.124,182.967 199.041 L 181.100 200.135 182.901 201.050 C 188.918 204.108,189.328 205.772,189.635 228.400 C 189.883 246.690,190.082 249.428,191.336 251.895 C 191.646 252.503,192.025 253.409,192.179 253.910 L 192.460 254.819 185.545 254.710 L 178.630 254.600 177.559 253.000 C 174.841 248.938,174.668 247.582,174.423 228.400 C 174.134 205.823,174.093 205.723,164.970 205.337 L 161.206 205.178 161.103 229.889 L 161.000 254.600 153.500 254.709 L 146.000 254.818 146.000 197.675 C 146.000 166.247,146.133 140.400,146.296 140.238 C 146.943 139.591,176.468 140.222,178.543 140.927 M299.800 140.908 C 304.337 142.231,306.880 147.191,306.922 154.800 C 306.958 161.319,306.197 163.899,301.201 174.200 C 293.801 189.457,291.600 194.093,291.600 194.420 C 291.600 194.647,294.747 194.800,299.414 194.800 L 307.229 194.800 307.114 198.700 L 307.000 202.600 295.248 202.706 C 281.530 202.830,282.400 203.097,282.400 198.762 C 282.400 195.264,281.363 197.715,292.797 174.200 C 298.132 163.228,298.503 162.043,298.556 155.800 C 298.604 150.103,298.032 148.224,296.104 147.740 C 292.998 146.961,291.542 149.331,291.215 155.700 C 291.191 156.177,283.283 156.058,282.985 155.576 C 282.634 155.009,283.497 150.343,284.464 147.574 C 286.572 141.542,292.756 138.854,299.800 140.908 M327.200 160.600 L 327.200 180.000 329.000 180.000 L 330.800 180.000 330.800 184.000 L 330.800 188.000 329.009 188.000 L 327.218 188.000 327.109 195.300 L 327.000 202.600 323.200 202.600 L 319.400 202.600 319.291 195.309 L 319.182 188.018 312.091 187.909 L 305.000 187.800 305.009 183.600 C 305.018 178.969,304.404 180.996,311.011 163.800 C 311.772 161.820,313.569 156.960,315.003 153.000 C 316.438 149.040,318.011 144.765,318.499 143.500 L 319.386 141.200 323.293 141.200 L 327.200 141.200 327.200 160.600 M161.200 173.039 L 161.200 192.078 166.633 191.939 C 173.937 191.752,173.200 193.901,173.200 172.786 C 173.200 151.845,173.972 154.000,166.469 154.000 L 161.200 154.000 161.200 173.039 M316.902 168.107 C 314.735 173.843,312.805 179.309,312.802 179.717 C 312.801 179.891,314.195 179.981,315.900 179.917 L 319.000 179.800 319.108 171.700 C 319.168 167.245,319.078 163.603,318.908 163.607 C 318.739 163.611,317.836 165.636,316.902 168.107 M115.867 173.800 C 115.719 174.900,115.511 176.790,115.407 178.000 C 115.302 179.210,114.941 182.630,114.606 185.600 C 114.270 188.570,113.808 192.710,113.579 194.800 C 113.350 196.890,112.905 200.310,112.590 202.400 C 112.275 204.490,111.838 208.000,111.619 210.200 C 111.400 212.400,111.114 215.145,110.983 216.300 L 110.746 218.400 116.363 218.400 L 121.980 218.400 121.811 217.300 C 121.719 216.695,121.441 214.220,121.195 211.800 C 120.421 204.189,119.617 197.157,119.000 192.600 C 118.046 185.551,117.202 178.142,117.169 176.509 C 117.152 175.679,116.913 174.280,116.638 173.400 L 116.137 171.800 115.867 173.800 M320.000 204.200 C 320.000 204.530,319.820 204.800,319.600 204.800 C 319.380 204.800,319.200 204.530,319.200 204.200 C 319.200 203.870,319.380 203.600,319.600 203.600 C 319.820 203.600,320.000 203.870,320.000 204.200 M332.374 251.815 C 322.378 261.826,314.140 270.192,314.067 270.408 C 313.982 270.657,317.694 270.800,324.270 270.800 L 334.607 270.800 342.750 262.650 L 350.894 254.499 350.869 244.205 C 350.855 238.543,350.777 233.844,350.696 233.763 C 350.615 233.682,342.370 241.805,332.374 251.815 M304.400 253.533 C 304.400 254.054,303.924 254.401,303.538 254.161 C 303.124 253.906,303.481 253.200,304.024 253.200 C 304.231 253.200,304.400 253.350,304.400 253.533 M377.575 256.987 C 385.546 261.109,382.304 273.704,373.253 273.778 C 364.845 273.846,361.092 263.109,367.689 257.862 C 370.051 255.984,374.819 255.562,377.575 256.987 M369.963 258.918 C 363.060 262.510,367.606 274.145,374.909 271.575 C 376.548 270.998,377.400 270.000,376.254 270.000 C 375.917 270.000,375.160 269.370,374.573 268.600 C 373.986 267.830,373.166 267.200,372.753 267.200 C 372.159 267.200,372.000 267.496,372.000 268.600 C 372.000 269.933,371.933 270.000,370.600 270.000 L 369.200 270.000 369.200 265.052 L 369.200 260.104 371.045 259.896 C 376.641 259.265,379.859 262.329,377.179 265.736 L 376.358 266.780 377.343 268.230 L 378.329 269.681 379.064 268.558 C 382.797 262.861,376.073 255.738,369.963 258.918 M372.000 263.576 C 372.000 264.646,372.138 264.799,373.100 264.794 C 375.706 264.779,376.064 262.689,373.497 262.476 C 372.067 262.357,372.000 262.406,372.000 263.576 " stroke="none" fill="#0473bb" fill-rule="evenodd"></path><path id="path2" d="M37.400 116.704 C 29.623 117.210,23.016 122.934,21.602 130.391 C 21.049 133.308,21.051 261.505,21.604 264.423 C 22.695 270.176,26.706 275.025,32.200 277.235 L 34.600 278.200 190.000 278.200 C 319.670 278.200,345.632 278.110,346.800 277.659 C 353.039 275.247,356.665 271.383,358.241 265.465 C 359.084 262.297,359.065 133.056,358.220 129.814 C 356.553 123.414,352.133 118.870,346.000 117.252 C 344.425 116.836,43.580 116.302,37.400 116.704 M254.701 197.492 L 254.802 271.184 253.901 271.406 C 253.405 271.527,204.130 271.576,144.400 271.513 C 22.238 271.386,34.460 271.726,31.162 268.361 C 28.167 265.306,28.400 271.275,28.400 197.547 C 28.400 122.850,28.121 129.578,31.346 126.453 C 34.539 123.357,23.277 123.627,145.600 123.718 L 254.600 123.800 254.701 197.492 M346.200 124.800 C 348.677 126.039,350.899 128.892,351.537 131.653 C 352.232 134.666,352.197 218.225,351.500 218.676 C 351.225 218.854,348.878 219.090,346.286 219.200 L 341.571 219.400 315.486 245.459 L 289.400 271.517 278.800 271.566 C 272.497 271.595,267.959 271.457,267.605 271.225 C 266.979 270.815,269.018 268.701,303.688 233.800 L 317.993 219.400 307.105 219.293 L 296.217 219.187 279.391 236.009 C 270.137 245.262,262.438 252.704,262.282 252.549 C 262.127 252.394,262.000 247.378,262.000 241.403 L 262.000 230.539 267.200 225.106 C 270.060 222.118,272.400 219.567,272.400 219.437 C 272.400 219.307,270.345 219.200,267.833 219.200 C 265.321 219.200,262.981 219.091,262.633 218.957 C 262.061 218.738,262.000 214.154,262.000 171.152 L 262.000 123.589 303.100 123.694 L 344.200 123.800 346.200 124.800 M352.000 243.487 L 352.000 254.527 343.617 262.963 L 335.234 271.400 326.117 271.528 C 316.951 271.656,312.800 271.431,312.800 270.804 C 312.800 270.066,351.073 231.874,351.530 232.157 C 351.872 232.368,352.000 235.464,352.000 243.487 " stroke="none" fill="#f39421" fill-rule="evenodd"></path><path id="path3" d="M33.600 116.540 C 27.620 118.155,21.641 124.381,21.021 129.639 L 20.814 131.400 21.249 130.000 C 23.274 123.488,27.829 118.828,34.000 116.955 C 36.733 116.125,342.843 116.141,345.800 116.971 C 348.546 117.742,350.400 118.514,350.400 118.888 C 350.400 119.059,350.670 119.200,351.000 119.200 C 351.330 119.200,351.600 119.380,351.600 119.600 C 351.600 119.820,351.794 120.000,352.031 120.000 C 353.621 120.000,357.179 125.448,358.563 130.000 C 359.410 132.786,359.365 262.900,358.516 265.772 C 356.814 271.532,352.726 275.611,346.000 278.263 L 344.600 278.815 345.938 278.610 C 351.798 277.712,357.527 271.904,359.189 265.177 C 359.865 262.437,359.581 129.527,358.898 129.299 C 358.621 129.207,358.500 128.961,358.629 128.753 C 359.082 128.020,356.225 123.147,354.093 121.014 C 351.920 118.842,349.684 117.535,346.436 116.540 C 343.965 115.783,36.404 115.783,33.600 116.540 M36.800 124.002 C 36.470 124.214,35.705 124.391,35.100 124.394 C 34.495 124.397,34.000 124.568,34.000 124.773 C 34.000 124.978,33.654 125.256,33.231 125.390 C 32.144 125.735,30.302 127.713,29.274 129.638 L 28.400 131.276 28.400 197.638 C 28.400 241.613,28.535 264.000,28.800 264.000 C 29.020 264.000,29.200 264.413,29.200 264.917 C 29.200 266.039,32.022 269.146,34.123 270.337 L 35.646 271.200 144.799 271.200 C 210.961 271.200,254.043 271.055,254.181 270.831 C 254.487 270.335,254.461 125.025,254.155 124.226 C 253.868 123.479,37.958 123.256,36.800 124.002 M262.252 124.500 C 261.750 126.375,261.972 217.812,262.480 218.320 C 262.801 218.641,264.572 218.800,267.813 218.800 C 270.483 218.800,272.768 218.902,272.892 219.026 C 273.158 219.292,270.561 222.183,266.485 226.158 C 261.742 230.783,261.999 229.908,262.006 241.447 C 262.009 246.921,262.163 251.637,262.346 251.927 C 262.586 252.305,267.427 247.703,279.488 235.627 L 296.295 218.800 307.177 218.800 C 316.647 218.800,318.042 218.878,317.929 219.401 C 317.858 219.731,306.495 231.342,292.678 245.203 C 278.861 259.064,267.666 270.584,267.802 270.802 C 267.954 271.050,272.101 271.200,278.781 271.200 L 289.514 271.200 295.257 265.466 C 298.416 262.312,301.838 258.847,302.862 257.766 C 303.886 256.685,306.676 253.873,309.062 251.519 C 311.448 249.164,319.782 240.839,327.582 233.019 L 341.765 218.800 346.182 218.787 C 349.169 218.779,350.821 218.606,351.283 218.255 C 351.920 217.771,351.968 214.887,351.986 176.081 C 352.007 128.244,352.137 129.950,348.200 126.544 C 345.742 124.418,345.711 124.400,344.440 124.400 C 343.784 124.400,343.136 124.220,343.000 124.000 C 342.838 123.738,328.945 123.600,302.623 123.600 L 262.493 123.600 262.252 124.500 M253.901 197.700 L 254.002 270.800 145.025 270.800 C 72.805 270.800,35.964 270.665,35.800 270.400 C 35.664 270.180,35.267 270.000,34.918 270.000 C 33.657 270.000,30.716 267.110,29.747 264.918 L 28.800 262.777 28.800 197.464 L 28.800 132.150 29.642 130.375 C 31.110 127.282,33.647 125.143,36.400 124.677 C 36.950 124.584,86.090 124.529,145.600 124.554 L 253.800 124.600 253.901 197.700 M345.872 125.315 C 347.319 126.129,349.304 128.267,350.173 129.948 C 350.644 130.859,351.214 208.236,350.820 217.900 C 350.805 218.271,349.577 218.400,346.074 218.400 L 341.349 218.400 315.257 244.607 L 289.166 270.813 278.683 270.707 L 268.200 270.600 293.446 245.237 C 312.456 226.140,318.645 219.692,318.500 219.137 C 318.318 218.443,317.648 218.400,307.053 218.393 L 295.800 218.386 279.501 234.793 C 270.536 243.817,263.021 251.200,262.801 251.200 C 262.544 251.200,262.400 247.587,262.400 241.133 L 262.400 231.066 267.607 225.807 C 270.472 222.915,272.677 220.396,272.507 220.210 C 272.338 220.024,272.413 219.994,272.672 220.142 C 273.276 220.488,273.674 219.858,273.363 219.047 C 273.166 218.533,272.193 218.403,267.862 218.311 L 262.600 218.200 262.490 172.200 C 262.430 146.900,262.480 125.790,262.601 125.289 L 262.821 124.378 303.710 124.489 C 342.127 124.593,344.677 124.643,345.872 125.315 M20.400 197.624 C 20.400 241.537,20.534 263.564,20.800 263.400 C 21.064 263.237,21.200 240.796,21.200 197.376 C 21.200 153.792,21.065 131.600,20.800 131.600 C 20.535 131.600,20.400 153.875,20.400 197.624 M116.028 170.833 C 116.044 171.365,116.219 172.160,116.419 172.600 C 116.671 173.158,116.707 172.915,116.538 171.800 C 116.255 169.943,115.987 169.436,116.028 170.833 M346.890 236.351 C 345.070 238.248,336.723 246.667,328.342 255.060 C 319.496 263.917,313.217 270.504,313.375 270.760 C 313.562 271.062,317.015 271.200,324.430 271.200 L 335.212 271.200 343.106 263.170 C 347.448 258.754,351.058 254.884,351.129 254.570 C 351.200 254.257,351.417 254.000,351.610 254.000 C 352.130 254.000,352.050 233.942,351.527 233.312 C 350.814 232.453,350.322 232.775,346.890 236.351 M350.869 244.205 L 350.894 254.499 342.750 262.650 L 334.607 270.800 324.270 270.800 C 317.692 270.800,313.982 270.657,314.067 270.408 C 314.256 269.850,350.508 233.575,350.692 233.758 C 350.775 233.842,350.855 238.543,350.869 244.205 M20.819 264.486 C 20.785 265.711,22.025 268.823,23.407 270.983 C 25.863 274.823,29.020 277.067,34.360 278.767 C 36.195 279.351,344.400 279.384,344.400 278.800 C 344.400 278.534,292.453 278.400,189.360 278.400 C 57.375 278.400,34.133 278.317,33.060 277.840 C 32.367 277.532,31.215 277.039,30.500 276.743 C 29.785 276.447,29.200 276.069,29.200 275.902 C 29.200 275.736,28.948 275.600,28.640 275.600 C 27.910 275.600,24.228 271.564,23.540 270.009 C 23.245 269.344,22.869 268.800,22.702 268.800 C 22.536 268.800,22.400 268.575,22.400 268.300 C 22.399 267.494,20.839 263.731,20.819 264.486 " stroke="none" fill="#4b6c76" fill-rule="evenodd"></path><path id="path4" d="M64.905 138.687 C 65.514 138.779,66.414 138.777,66.905 138.682 C 67.397 138.587,66.900 138.511,65.800 138.514 C 64.700 138.517,64.297 138.595,64.905 138.687 M216.900 138.676 C 217.285 138.776,217.915 138.776,218.300 138.676 C 218.685 138.575,218.370 138.493,217.600 138.493 C 216.830 138.493,216.515 138.575,216.900 138.676 M71.300 139.076 C 71.685 139.176,72.315 139.176,72.700 139.076 C 73.085 138.975,72.770 138.893,72.000 138.893 C 71.230 138.893,70.915 138.975,71.300 139.076 M211.700 139.076 C 212.085 139.176,212.715 139.176,213.100 139.076 C 213.485 138.975,213.170 138.893,212.400 138.893 C 211.630 138.893,211.315 138.975,211.700 139.076 M114.700 140.295 C 115.855 140.376,117.745 140.376,118.900 140.295 C 120.055 140.214,119.110 140.148,116.800 140.148 C 114.490 140.148,113.545 140.214,114.700 140.295 M155.700 140.299 C 159.165 140.366,164.835 140.366,168.300 140.299 C 171.765 140.233,168.930 140.178,162.000 140.178 C 155.070 140.178,152.235 140.233,155.700 140.299 M106.893 146.800 C 106.893 147.570,106.975 147.885,107.076 147.500 C 107.176 147.115,107.176 146.485,107.076 146.100 C 106.975 145.715,106.893 146.030,106.893 146.800 M298.928 155.600 C 298.928 157.030,299.001 157.615,299.089 156.900 C 299.178 156.185,299.178 155.015,299.089 154.300 C 299.001 153.585,298.928 154.170,298.928 155.600 M160.984 174.200 C 160.984 184.100,161.036 188.093,161.100 183.073 C 161.163 178.053,161.163 169.953,161.100 165.073 C 161.036 160.193,160.984 164.300,160.984 174.200 M223.370 164.800 C 223.370 169.530,223.428 171.465,223.498 169.100 C 223.569 166.735,223.569 162.865,223.498 160.500 C 223.428 158.135,223.370 160.070,223.370 164.800 M128.901 169.400 C 128.905 170.280,128.987 170.593,129.083 170.095 C 129.179 169.598,129.175 168.878,129.075 168.495 C 128.975 168.113,128.896 168.520,128.901 169.400 M116.262 170.200 C 116.396 171.080,116.572 171.875,116.653 171.967 C 116.956 172.310,116.729 170.168,116.381 169.400 C 116.129 168.842,116.093 169.085,116.262 170.200 M286.865 186.217 C 286.195 187.688,286.323 188.002,287.047 186.665 C 287.386 186.040,287.588 185.454,287.496 185.363 C 287.405 185.271,287.121 185.656,286.865 186.217 M118.493 187.600 C 118.493 188.370,118.575 188.685,118.676 188.300 C 118.776 187.915,118.776 187.285,118.676 186.900 C 118.575 186.515,118.493 186.830,118.493 187.600 M293.907 195.090 C 294.626 195.179,295.706 195.177,296.307 195.086 C 296.908 194.995,296.320 194.922,295.000 194.924 C 293.680 194.926,293.188 195.001,293.907 195.090 M282.534 198.400 C 282.534 200.050,282.605 200.725,282.691 199.900 C 282.778 199.075,282.778 197.725,282.691 196.900 C 282.605 196.075,282.534 196.750,282.534 198.400 M289.924 202.699 C 293.073 202.767,298.113 202.767,301.124 202.699 C 304.136 202.631,301.560 202.576,295.400 202.576 C 289.240 202.576,286.776 202.632,289.924 202.699 M321.100 202.693 C 322.035 202.777,323.565 202.777,324.500 202.693 C 325.435 202.609,324.670 202.540,322.800 202.540 C 320.930 202.540,320.165 202.609,321.100 202.693 M160.984 205.300 C 160.878 205.575,160.839 215.610,160.896 227.600 L 161.000 249.400 161.200 227.100 C 161.310 214.835,161.349 204.800,161.287 204.800 C 161.226 204.800,161.089 205.025,160.984 205.300 M213.200 205.725 C 213.200 205.794,213.785 206.379,214.500 207.025 L 215.800 208.200 214.625 206.900 C 213.530 205.688,213.200 205.416,213.200 205.725 M189.381 228.800 C 189.381 237.050,189.434 240.425,189.499 236.300 C 189.564 232.175,189.564 225.425,189.499 221.300 C 189.434 217.175,189.381 220.550,189.381 228.800 M111.700 218.687 C 112.305 218.778,113.295 218.778,113.900 218.687 C 114.505 218.595,114.010 218.520,112.800 218.520 C 111.590 218.520,111.095 218.595,111.700 218.687 M223.370 230.000 C 223.370 234.730,223.428 236.665,223.498 234.300 C 223.569 231.935,223.569 228.065,223.498 225.700 C 223.428 223.335,223.370 225.270,223.370 230.000 M77.280 223.498 C 79.194 223.571,82.434 223.571,84.480 223.498 C 86.526 223.426,84.960 223.366,81.000 223.365 C 77.040 223.365,75.366 223.424,77.280 223.498 M210.493 236.800 C 210.493 237.570,210.575 237.885,210.676 237.500 C 210.776 237.115,210.776 236.485,210.676 236.100 C 210.575 235.715,210.493 236.030,210.493 236.800 M174.514 241.800 C 174.517 242.900,174.595 243.303,174.687 242.695 C 174.779 242.086,174.777 241.186,174.682 240.695 C 174.587 240.203,174.511 240.700,174.514 241.800 M373.362 262.357 C 374.410 262.520,375.026 262.863,375.234 263.400 C 375.448 263.952,375.552 264.008,375.572 263.580 C 375.618 262.569,374.734 261.996,373.220 262.057 L 371.800 262.114 373.362 262.357 M376.962 270.458 C 376.205 271.310,376.206 271.313,377.078 270.856 C 378.050 270.346,378.649 269.600,378.086 269.600 C 377.887 269.600,377.381 269.986,376.962 270.458 M199.600 399.200 L -0.200 399.401 199.700 399.501 C 332.766 399.567,399.600 399.466,399.600 399.200 C 399.600 398.980,399.555 398.845,399.500 398.899 C 399.445 398.954,309.490 399.089,199.600 399.200 " stroke="none" fill="#558bb1" fill-rule="evenodd"></path><path id="path5" d="M36.105 116.687 C 36.714 116.779,37.614 116.777,38.105 116.682 C 38.597 116.587,38.100 116.511,37.000 116.514 C 35.900 116.517,35.497 116.595,36.105 116.687 M115.667 116.700 C 156.955 116.756,224.635 116.756,266.067 116.700 C 307.500 116.644,273.720 116.598,191.000 116.598 C 108.280 116.598,74.380 116.644,115.667 116.700 M342.500 116.676 C 342.885 116.776,343.515 116.776,343.900 116.676 C 344.285 116.575,343.970 116.493,343.200 116.493 C 342.430 116.493,342.115 116.575,342.500 116.676 M254.300 176.338 C 254.356 205.302,254.447 238.270,254.504 249.600 C 254.561 260.930,254.651 237.316,254.704 197.124 C 254.757 156.932,254.665 123.964,254.500 123.862 C 254.335 123.760,254.245 147.374,254.300 176.338 M343.000 124.000 C 343.136 124.220,343.642 124.387,344.124 124.372 C 344.969 124.345,344.971 124.331,344.200 124.000 C 343.099 123.527,342.708 123.527,343.000 124.000 M32.344 125.624 L 31.400 126.447 32.600 125.745 C 34.179 124.820,34.203 124.800,33.711 124.800 C 33.479 124.800,32.864 125.171,32.344 125.624 M346.600 125.266 C 347.040 125.508,347.858 126.088,348.419 126.554 C 348.979 127.019,348.846 126.815,348.124 126.100 C 347.402 125.385,346.584 124.805,346.306 124.812 C 346.028 124.819,346.160 125.023,346.600 125.266 M358.600 197.600 C 358.600 234.518,358.732 264.516,358.894 264.262 C 359.056 264.008,359.188 234.010,359.188 197.600 C 359.188 161.190,359.056 131.192,358.894 130.938 C 358.732 130.684,358.600 160.682,358.600 197.600 M262.000 218.312 C 262.000 218.572,262.405 218.876,262.900 218.987 C 264.402 219.326,272.802 219.421,272.801 219.100 C 272.800 218.935,270.586 218.800,267.880 218.800 C 264.587 218.800,262.801 218.641,262.480 218.320 C 262.115 217.955,262.000 217.953,262.000 218.312 M351.000 218.400 C 350.859 218.628,348.819 218.800,346.246 218.800 C 341.832 218.800,341.720 218.822,340.770 219.900 L 339.800 221.000 340.826 220.100 C 341.756 219.283,342.259 219.200,346.249 219.200 C 349.497 219.200,350.850 219.046,351.424 218.613 C 351.851 218.290,351.986 218.020,351.724 218.013 C 351.462 218.006,351.136 218.180,351.000 218.400 M301.700 219.099 C 304.725 219.167,309.675 219.167,312.700 219.099 C 315.725 219.031,313.250 218.975,307.200 218.975 C 301.150 218.975,298.675 219.031,301.700 219.099 M310.800 226.600 C 306.955 230.450,303.918 233.600,304.052 233.600 C 304.231 233.600,312.497 225.386,317.967 219.771 C 318.058 219.677,318.056 219.600,317.962 219.600 C 317.868 219.600,314.645 222.750,310.800 226.600 M268.192 224.095 C 266.216 226.127,265.399 227.072,266.375 226.195 C 268.433 224.345,268.493 224.286,270.581 222.075 C 271.451 221.154,272.077 220.400,271.973 220.400 C 271.869 220.400,270.167 222.063,268.192 224.095 M292.981 222.100 L 291.400 223.800 293.100 222.219 C 294.681 220.748,294.984 220.400,294.681 220.400 C 294.616 220.400,293.851 221.165,292.981 222.100 M337.978 222.700 L 336.600 224.200 338.100 222.822 C 338.925 222.063,339.600 221.388,339.600 221.322 C 339.600 221.016,339.262 221.304,337.978 222.700 M324.579 236.016 C 311.919 248.718,313.014 247.600,313.236 247.600 C 313.329 247.600,318.533 242.470,324.800 236.200 C 331.067 229.930,336.097 224.800,335.977 224.800 C 335.857 224.800,330.728 229.847,324.579 236.016 M285.781 229.300 L 284.200 231.000 285.900 229.419 C 287.481 227.948,287.784 227.600,287.481 227.600 C 287.416 227.600,286.651 228.365,285.781 229.300 M281.775 233.300 L 280.600 234.600 281.900 233.425 C 282.615 232.779,283.200 232.194,283.200 232.125 C 283.200 231.816,282.870 232.088,281.775 233.300 M350.897 232.340 C 350.577 232.538,350.677 232.780,351.216 233.117 C 351.859 233.519,352.000 233.503,352.000 233.027 C 352.000 232.286,351.494 231.971,350.897 232.340 M346.000 237.000 C 345.028 237.990,344.323 238.800,344.433 238.800 C 344.543 238.800,345.428 237.990,346.400 237.000 C 347.372 236.010,348.077 235.200,347.967 235.200 C 347.857 235.200,346.972 236.010,346.000 237.000 M296.594 240.896 C 293.957 243.589,292.854 244.804,294.141 243.596 C 297.548 240.401,301.877 236.000,301.614 236.000 C 301.490 236.000,299.230 238.203,296.594 240.896 M277.375 237.700 L 276.200 239.000 277.500 237.825 C 278.215 237.179,278.800 236.594,278.800 236.525 C 278.800 236.216,278.470 236.488,277.375 237.700 M335.796 247.289 C 331.398 251.739,329.420 253.854,331.400 251.989 C 335.363 248.258,344.271 239.200,343.978 239.200 C 343.876 239.200,340.194 242.840,335.796 247.289 M269.375 245.700 L 268.200 247.000 269.500 245.825 C 270.215 245.179,270.800 244.594,270.800 244.525 C 270.800 244.216,270.470 244.488,269.375 245.700 M288.602 248.798 C 288.203 249.239,288.007 249.600,288.167 249.600 C 288.588 249.600,289.728 248.395,289.512 248.179 C 289.411 248.078,289.002 248.356,288.602 248.798 M310.585 250.100 L 308.600 252.200 310.700 250.215 C 312.651 248.371,312.983 248.000,312.685 248.000 C 312.622 248.000,311.677 248.945,310.585 250.100 M304.583 256.014 C 302.613 258.002,300.916 259.757,300.813 259.914 C 300.709 260.071,302.374 258.494,304.513 256.408 C 306.651 254.322,308.400 252.567,308.400 252.508 C 308.400 252.210,307.895 252.674,304.583 256.014 M346.793 259.500 L 342.600 263.800 346.900 259.607 C 349.265 257.301,351.200 255.366,351.200 255.307 C 351.200 255.018,350.687 255.506,346.793 259.500 M324.581 258.500 L 323.000 260.200 324.700 258.619 C 326.281 257.148,326.584 256.800,326.281 256.800 C 326.216 256.800,325.451 257.565,324.581 258.500 M298.575 262.100 L 297.400 263.400 298.700 262.225 C 299.415 261.579,300.000 260.994,300.000 260.925 C 300.000 260.616,299.670 260.888,298.575 262.100 M340.185 266.100 L 338.200 268.200 340.300 266.215 C 341.455 265.123,342.400 264.178,342.400 264.115 C 342.400 263.817,342.029 264.149,340.185 266.100 M254.154 270.806 C 253.900 271.060,216.429 271.234,147.781 271.300 L 41.800 271.401 147.800 271.495 C 245.619 271.581,255.633 271.499,254.762 270.628 C 254.643 270.510,254.370 270.590,254.154 270.806 M267.200 270.712 C 267.200 271.514,268.706 271.631,277.400 271.505 L 285.800 271.383 276.980 271.291 C 270.762 271.227,268.018 271.058,267.680 270.720 C 267.315 270.355,267.200 270.353,267.200 270.712 M319.723 271.499 C 322.541 271.568,327.041 271.568,329.723 271.499 C 332.405 271.430,330.100 271.373,324.600 271.373 C 319.100 271.374,316.905 271.430,319.723 271.499 M27.288 274.613 C 27.886 275.243,28.447 275.677,28.535 275.579 C 28.623 275.480,28.133 274.965,27.447 274.434 L 26.200 273.469 27.288 274.613 M344.100 278.276 C 344.485 278.376,345.115 278.376,345.500 278.276 C 345.885 278.175,345.570 278.093,344.800 278.093 C 344.030 278.093,343.715 278.175,344.100 278.276 " stroke="none" fill="#5c6855" fill-rule="evenodd"></path><path id="path6" d="M199.800 0.300 L 399.599 0.401 399.700 200.000 L 399.801 399.600 399.801 199.900 L 399.800 0.200 199.900 0.199 L -0.000 0.199 199.800 0.300 M146.185 140.900 C 146.080 141.175,146.041 166.870,146.097 198.000 L 146.200 254.600 153.500 254.709 C 157.515 254.769,160.800 254.679,160.800 254.509 C 160.801 254.339,157.560 254.253,153.598 254.317 L 146.395 254.435 146.497 197.417 C 146.554 166.058,146.549 140.400,146.487 140.400 C 146.426 140.400,146.289 140.625,146.185 140.900 M174.705 140.683 C 175.202 140.779,175.922 140.775,176.305 140.675 C 176.687 140.575,176.280 140.496,175.400 140.501 C 174.520 140.505,174.207 140.587,174.705 140.683 M53.900 141.429 C 52.405 142.240,52.496 142.578,54.000 141.800 C 54.660 141.459,55.200 141.094,55.200 140.990 C 55.200 140.732,55.157 140.747,53.900 141.429 M78.000 140.950 C 78.000 141.044,78.641 141.499,79.424 141.961 C 80.207 142.423,80.736 142.620,80.599 142.398 C 80.331 141.964,78.000 140.666,78.000 140.950 M289.700 141.596 C 288.985 142.032,288.400 142.503,288.400 142.643 C 288.400 142.783,288.637 142.701,288.928 142.460 C 289.218 142.219,290.073 141.754,290.828 141.427 C 291.582 141.099,291.930 140.825,291.600 140.817 C 291.270 140.809,290.415 141.160,289.700 141.596 M319.393 141.612 C 319.243 141.855,319.228 142.161,319.360 142.293 C 319.492 142.425,319.600 142.323,319.600 142.067 C 319.600 141.746,320.723 141.600,323.196 141.600 L 326.792 141.600 326.902 160.200 L 327.012 178.800 327.006 160.100 L 327.000 141.400 323.333 141.285 C 320.973 141.212,319.568 141.328,319.393 141.612 M82.600 144.400 C 83.459 145.280,84.252 146.000,84.362 146.000 C 84.472 146.000,83.859 145.280,83.000 144.400 C 82.141 143.520,81.348 142.800,81.238 142.800 C 81.128 142.800,81.741 143.520,82.600 144.400 M49.544 145.100 C 48.393 146.489,47.906 147.200,48.104 147.200 C 48.214 147.200,48.786 146.570,49.373 145.800 C 50.463 144.371,50.595 143.832,49.544 145.100 M185.941 147.577 C 186.518 148.658,187.050 149.484,187.123 149.411 C 187.314 149.220,185.681 146.097,185.252 145.832 C 185.054 145.710,185.364 146.495,185.941 147.577 M234.400 146.800 C 234.870 147.460,235.344 148.000,235.454 148.000 C 235.564 148.000,235.270 147.460,234.800 146.800 C 234.330 146.140,233.856 145.600,233.746 145.600 C 233.636 145.600,233.930 146.140,234.400 146.800 M296.733 147.876 C 297.026 147.993,297.610 148.654,298.031 149.344 C 298.452 150.035,298.798 150.399,298.799 150.154 C 298.801 149.482,297.209 147.595,296.671 147.632 C 296.372 147.652,296.394 147.741,296.733 147.876 M305.858 148.800 C 306.175 150.525,306.402 150.851,306.394 149.567 C 306.391 149.035,306.211 148.330,305.994 148.000 C 305.718 147.578,305.677 147.815,305.858 148.800 M86.229 150.000 C 86.376 150.550,86.664 151.270,86.867 151.600 C 87.125 152.017,87.157 151.895,86.971 151.200 C 86.824 150.650,86.536 149.930,86.333 149.600 C 86.075 149.183,86.043 149.305,86.229 150.000 M197.593 150.618 C 197.084 151.956,196.634 153.854,196.886 153.600 C 197.194 153.289,198.375 149.600,198.166 149.600 C 198.064 149.600,197.806 150.058,197.593 150.618 M126.093 151.200 C 126.093 151.970,126.175 152.285,126.276 151.900 C 126.376 151.515,126.376 150.885,126.276 150.500 C 126.175 150.115,126.093 150.430,126.093 151.200 M306.501 152.200 C 306.505 153.080,306.587 153.393,306.683 152.895 C 306.779 152.398,306.775 151.678,306.675 151.295 C 306.575 150.913,306.496 151.320,306.501 152.200 M290.864 153.867 C 290.829 154.783,290.575 155.624,290.300 155.735 C 289.908 155.893,289.911 155.944,290.313 155.968 C 291.010 156.011,291.289 155.141,291.092 153.538 C 290.941 152.307,290.923 152.333,290.864 153.867 M72.279 153.589 C 72.542 153.934,72.936 154.663,73.154 155.208 C 73.417 155.868,73.558 155.973,73.575 155.522 C 73.589 155.150,73.195 154.421,72.700 153.903 C 72.205 153.385,72.016 153.243,72.279 153.589 M126.493 154.000 C 126.493 154.770,126.575 155.085,126.676 154.700 C 126.776 154.315,126.776 153.685,126.676 153.300 C 126.575 152.915,126.493 153.230,126.493 154.000 M163.500 153.897 C 165.095 153.973,167.705 153.973,169.300 153.897 C 170.895 153.821,169.590 153.759,166.400 153.759 C 163.210 153.759,161.905 153.821,163.500 153.897 M172.700 154.399 C 173.084 154.830,173.200 159.105,173.200 172.857 L 173.200 190.755 172.311 191.377 C 171.822 191.720,171.614 192.000,171.849 192.000 C 172.084 192.000,172.574 191.671,172.938 191.269 C 173.982 190.115,173.946 155.159,172.900 154.368 C 172.304 153.918,172.275 153.922,172.700 154.399 M237.709 156.400 C 237.709 157.390,237.787 157.795,237.882 157.300 C 237.978 156.805,237.978 155.995,237.882 155.500 C 237.787 155.005,237.709 155.410,237.709 156.400 M283.559 155.721 C 283.736 155.897,285.033 155.985,286.441 155.916 L 289.000 155.791 286.118 155.595 C 284.533 155.488,283.381 155.544,283.559 155.721 M73.678 163.900 C 73.635 168.135,73.735 171.600,73.900 171.601 C 74.065 171.601,74.153 169.306,74.096 166.501 C 73.903 157.060,73.757 156.152,73.678 163.900 M306.501 158.200 C 306.505 159.080,306.587 159.393,306.683 158.895 C 306.779 158.398,306.775 157.678,306.675 157.295 C 306.575 156.913,306.496 157.320,306.501 158.200 M313.244 158.044 C 312.998 158.751,312.866 159.400,312.952 159.485 C 313.038 159.571,313.309 159.062,313.556 158.356 C 313.802 157.649,313.934 157.000,313.848 156.915 C 313.762 156.829,313.491 157.338,313.244 158.044 M44.992 197.600 C 44.992 219.710,45.041 228.755,45.100 217.700 C 45.159 206.645,45.159 188.555,45.100 177.500 C 45.041 166.445,44.992 175.490,44.992 197.600 M105.293 159.200 C 105.293 159.970,105.375 160.285,105.476 159.900 C 105.576 159.515,105.576 158.885,105.476 158.500 C 105.375 158.115,105.293 158.430,105.293 159.200 M87.919 165.001 C 87.853 168.631,87.935 171.601,88.100 171.601 C 88.265 171.600,88.400 168.630,88.400 165.000 C 88.400 156.460,88.072 156.460,87.919 165.001 M196.169 166.600 C 196.170 171.220,196.228 173.055,196.299 170.678 C 196.370 168.301,196.369 164.521,196.298 162.278 C 196.227 160.035,196.169 161.980,196.169 166.600 M318.556 162.243 C 318.224 163.037,318.045 163.778,318.157 163.890 C 318.269 164.003,318.505 163.578,318.681 162.947 C 318.876 162.246,319.082 165.451,319.211 171.200 L 319.422 180.600 319.511 170.700 C 319.604 160.382,319.546 159.873,318.556 162.243 M104.893 162.400 C 104.893 163.170,104.975 163.485,105.076 163.100 C 105.176 162.715,105.176 162.085,105.076 161.700 C 104.975 161.315,104.893 161.630,104.893 162.400 M237.748 167.200 C 237.748 169.510,237.814 170.455,237.895 169.300 C 237.976 168.145,237.976 166.255,237.895 165.100 C 237.814 163.945,237.748 164.890,237.748 167.200 M297.067 165.267 C 296.705 166.188,296.474 167.007,296.554 167.088 C 296.634 167.168,297.000 166.483,297.367 165.567 C 297.733 164.650,297.964 163.831,297.879 163.746 C 297.794 163.661,297.429 164.345,297.067 165.267 M309.046 169.446 C 308.692 170.485,308.472 171.405,308.556 171.490 C 308.641 171.574,309.000 170.793,309.354 169.754 C 309.708 168.715,309.928 167.795,309.844 167.710 C 309.759 167.626,309.400 168.407,309.046 169.446 M116.028 168.276 C 116.118 169.315,116.744 170.196,116.772 169.324 C 116.787 168.842,116.620 168.336,116.400 168.200 C 116.180 168.064,116.013 168.098,116.028 168.276 M294.465 171.017 C 293.795 172.488,293.923 172.802,294.647 171.465 C 294.986 170.840,295.188 170.254,295.096 170.163 C 295.005 170.071,294.721 170.456,294.465 171.017 M116.901 172.200 C 116.905 173.080,116.987 173.393,117.083 172.895 C 117.179 172.398,117.175 171.678,117.075 171.295 C 116.975 170.913,116.896 171.320,116.901 172.200 M237.600 172.391 C 237.600 172.626,234.774 172.829,230.500 172.901 L 223.400 173.020 230.700 173.110 C 236.962 173.187,238.000 173.115,238.000 172.600 C 238.000 172.270,237.910 172.000,237.800 172.000 C 237.690 172.000,237.600 172.176,237.600 172.391 M314.246 173.846 C 313.892 174.885,313.672 175.805,313.756 175.890 C 313.841 175.974,314.200 175.193,314.554 174.154 C 314.908 173.115,315.128 172.195,315.044 172.110 C 314.959 172.026,314.600 172.807,314.246 173.846 M117.301 175.800 C 117.305 176.680,117.387 176.993,117.483 176.495 C 117.579 175.998,117.575 175.278,117.475 174.895 C 117.375 174.513,117.296 174.920,117.301 175.800 M298.672 178.219 C 297.732 180.189,297.864 180.524,298.847 178.662 C 299.293 177.816,299.587 177.054,299.501 176.967 C 299.414 176.881,299.041 177.444,298.672 178.219 M196.493 178.400 C 196.493 179.170,196.575 179.485,196.676 179.100 C 196.776 178.715,196.776 178.085,196.676 177.700 C 196.575 177.315,196.493 177.630,196.493 178.400 M117.701 179.000 C 117.705 179.880,117.787 180.193,117.883 179.695 C 117.979 179.198,117.975 178.478,117.875 178.095 C 117.775 177.713,117.696 178.120,117.701 179.000 M114.893 179.200 C 114.893 179.970,114.975 180.285,115.076 179.900 C 115.176 179.515,115.176 178.885,115.076 178.500 C 114.975 178.115,114.893 178.430,114.893 179.200 M305.246 179.639 C 304.749 181.065,304.629 187.599,305.100 187.601 C 305.265 187.601,305.341 186.151,305.269 184.378 C 305.197 182.605,305.332 180.595,305.571 179.912 C 305.809 179.229,305.934 178.600,305.848 178.515 C 305.762 178.429,305.492 178.935,305.246 179.639 M213.591 181.188 C 214.057 181.841,214.642 182.502,214.891 182.656 C 215.141 182.811,214.841 182.276,214.225 181.468 C 212.888 179.715,212.384 179.492,213.591 181.188 M330.544 184.000 C 330.544 186.090,330.612 186.945,330.694 185.900 C 330.776 184.855,330.776 183.145,330.694 182.100 C 330.612 181.055,330.544 181.910,330.544 184.000 M114.501 182.600 C 114.505 183.480,114.587 183.793,114.683 183.295 C 114.779 182.798,114.775 182.078,114.675 181.695 C 114.575 181.313,114.496 181.720,114.501 182.600 M130.493 182.400 C 130.493 183.170,130.575 183.485,130.676 183.100 C 130.776 182.715,130.776 182.085,130.676 181.700 C 130.575 181.315,130.493 181.630,130.493 182.400 M101.693 185.200 C 101.693 185.970,101.775 186.285,101.876 185.900 C 101.976 185.515,101.976 184.885,101.876 184.500 C 101.775 184.115,101.693 184.430,101.693 185.200 M114.101 185.800 C 114.105 186.680,114.187 186.993,114.283 186.495 C 114.379 185.998,114.375 185.278,114.275 184.895 C 114.175 184.513,114.096 184.920,114.101 185.800 M101.293 188.000 C 101.293 188.770,101.375 189.085,101.476 188.700 C 101.576 188.315,101.576 187.685,101.476 187.300 C 101.375 186.915,101.293 187.230,101.293 188.000 M113.701 189.000 C 113.705 189.880,113.787 190.193,113.883 189.695 C 113.979 189.198,113.975 188.478,113.875 188.095 C 113.775 187.713,113.696 188.120,113.701 189.000 M319.386 194.900 L 319.400 202.200 323.200 202.200 L 327.000 202.200 327.015 195.700 L 327.031 189.199 326.905 195.600 L 326.780 202.000 323.199 202.000 L 319.618 202.000 319.495 194.800 L 319.372 187.599 319.386 194.900 M118.893 189.600 C 118.893 190.370,118.975 190.685,119.076 190.300 C 119.176 189.915,119.176 189.285,119.076 188.900 C 118.975 188.515,118.893 188.830,118.893 189.600 M187.701 189.800 C 187.705 190.680,187.787 190.993,187.883 190.495 C 187.979 189.998,187.975 189.278,187.875 188.895 C 187.775 188.513,187.696 188.920,187.701 189.800 M100.615 191.815 C 100.461 193.054,100.417 194.150,100.519 194.252 C 100.620 194.354,100.830 193.423,100.985 192.185 C 101.139 190.946,101.183 189.850,101.081 189.748 C 100.980 189.646,100.770 190.577,100.615 191.815 M185.894 195.703 L 185.188 197.000 185.994 196.056 C 186.680 195.252,187.046 194.394,186.700 194.403 C 186.645 194.404,186.282 194.989,185.894 195.703 M282.883 198.500 L 282.800 202.400 295.000 202.400 L 307.200 202.400 307.118 198.700 L 307.035 195.000 306.902 198.500 L 306.769 202.000 294.999 202.000 L 283.230 202.000 283.098 198.300 L 282.966 194.600 282.883 198.500 M112.493 199.600 C 112.493 200.370,112.575 200.685,112.676 200.300 C 112.776 199.915,112.776 199.285,112.676 198.900 C 112.575 198.515,112.493 198.830,112.493 199.600 M213.196 205.194 C 213.890 206.071,214.667 206.918,214.923 207.076 C 215.178 207.234,214.693 206.516,213.845 205.481 C 212.997 204.447,212.220 203.600,212.118 203.600 C 212.016 203.600,212.501 204.318,213.196 205.194 M164.707 205.090 C 165.426 205.179,166.506 205.177,167.107 205.086 C 167.708 204.995,167.120 204.922,165.800 204.924 C 164.480 204.926,163.988 205.001,164.707 205.090 M233.385 206.300 C 234.002 207.235,234.583 208.000,234.676 208.000 C 234.964 208.000,233.433 205.566,232.832 205.069 C 232.520 204.811,232.768 205.365,233.385 206.300 M120.909 206.800 C 120.909 207.790,120.987 208.195,121.082 207.700 C 121.178 207.205,121.178 206.395,121.082 205.900 C 120.987 205.405,120.909 205.810,120.909 206.800 M170.600 206.067 C 171.040 206.310,171.769 206.800,172.219 207.155 C 172.670 207.510,172.532 207.305,171.913 206.700 C 171.294 206.095,170.565 205.605,170.294 205.612 C 170.022 205.619,170.160 205.823,170.600 206.067 M134.093 208.400 C 134.093 209.170,134.175 209.485,134.276 209.100 C 134.376 208.715,134.376 208.085,134.276 207.700 C 134.175 207.315,134.093 207.630,134.093 208.400 M111.293 210.400 C 111.293 211.170,111.375 211.485,111.476 211.100 C 111.576 210.715,111.576 210.085,111.476 209.700 C 111.375 209.315,111.293 209.630,111.293 210.400 M121.301 210.600 C 121.305 211.480,121.387 211.793,121.483 211.295 C 121.579 210.798,121.575 210.078,121.475 209.695 C 121.375 209.313,121.296 209.720,121.301 210.600 M134.493 211.200 C 134.493 211.970,134.575 212.285,134.676 211.900 C 134.776 211.515,134.776 210.885,134.676 210.500 C 134.575 210.115,134.493 210.430,134.493 211.200 M188.983 227.400 C 188.983 236.420,189.035 240.167,189.099 235.727 C 189.164 231.287,189.164 223.907,189.100 219.327 C 189.035 214.747,188.983 218.380,188.983 227.400 M174.581 225.800 C 174.580 233.720,174.634 237.017,174.699 233.126 C 174.765 229.235,174.765 222.755,174.700 218.726 C 174.634 214.697,174.581 217.880,174.581 225.800 M110.893 213.600 C 110.893 214.370,110.975 214.685,111.076 214.300 C 111.176 213.915,111.176 213.285,111.076 212.900 C 110.975 212.515,110.893 212.830,110.893 213.600 M121.693 213.600 C 121.693 214.370,121.775 214.685,121.876 214.300 C 121.976 213.915,121.976 213.285,121.876 212.900 C 121.775 212.515,121.693 212.830,121.693 213.600 M97.385 214.985 C 97.230 216.223,97.190 217.323,97.295 217.429 C 97.401 217.534,97.607 216.601,97.754 215.354 C 97.900 214.107,97.941 213.007,97.843 212.910 C 97.746 212.812,97.539 213.746,97.385 214.985 M110.501 216.600 C 110.505 217.480,110.587 217.793,110.683 217.295 C 110.779 216.798,110.775 216.078,110.675 215.695 C 110.575 215.313,110.496 215.720,110.501 216.600 M122.093 216.800 C 122.093 217.570,122.175 217.885,122.276 217.500 C 122.376 217.115,122.376 216.485,122.276 216.100 C 122.175 215.715,122.093 216.030,122.093 216.800 M96.901 219.400 C 96.905 220.280,96.987 220.593,97.083 220.095 C 97.179 219.598,97.175 218.878,97.075 218.495 C 96.975 218.113,96.896 218.520,96.901 219.400 M110.662 218.900 C 110.764 219.065,113.346 219.200,116.400 219.200 C 119.454 219.200,122.036 219.065,122.138 218.900 C 122.240 218.735,119.658 218.600,116.400 218.600 C 113.142 218.600,110.560 218.735,110.662 218.900 M196.177 222.515 C 196.069 222.798,196.030 226.083,196.091 229.815 L 196.202 236.600 196.401 229.300 C 196.596 222.134,196.575 221.479,196.177 222.515 M73.685 230.800 C 73.632 234.870,73.496 238.650,73.383 239.200 L 73.177 240.200 73.597 239.242 C 73.856 238.651,73.972 235.431,73.899 230.842 L 73.781 223.400 73.685 230.800 M88.162 229.800 C 88.162 233.320,88.224 234.706,88.298 232.881 C 88.372 231.056,88.372 228.176,88.297 226.481 C 88.222 224.786,88.161 226.280,88.162 229.800 M112.500 232.298 C 114.645 232.370,118.155 232.370,120.300 232.298 C 122.445 232.226,120.690 232.167,116.400 232.167 C 112.110 232.167,110.355 232.226,112.500 232.298 M138.093 236.800 C 138.093 237.570,138.175 237.885,138.276 237.500 C 138.376 237.115,138.376 236.485,138.276 236.100 C 138.175 235.715,138.093 236.030,138.093 236.800 M124.501 238.600 C 124.505 239.480,124.587 239.793,124.683 239.295 C 124.779 238.798,124.775 238.078,124.675 237.695 C 124.575 237.313,124.496 237.720,124.501 238.600 M45.293 239.200 C 45.293 239.970,45.375 240.285,45.476 239.900 C 45.576 239.515,45.576 238.885,45.476 238.500 C 45.375 238.115,45.293 238.430,45.293 239.200 M210.434 238.624 C 210.415 239.076,210.683 239.796,211.030 240.224 C 211.376 240.651,211.537 240.761,211.387 240.469 C 211.237 240.176,210.969 239.456,210.791 238.869 C 210.533 238.011,210.462 237.963,210.434 238.624 M196.493 239.600 C 196.493 240.370,196.575 240.685,196.676 240.300 C 196.776 239.915,196.776 239.285,196.676 238.900 C 196.575 238.515,196.493 238.830,196.493 239.600 M60.598 241.137 C 61.034 241.652,61.753 242.259,62.196 242.486 C 63.045 242.921,62.921 242.787,61.003 241.194 C 59.848 240.235,59.834 240.233,60.598 241.137 M124.893 241.600 C 124.893 242.370,124.975 242.685,125.076 242.300 C 125.176 241.915,125.176 241.285,125.076 240.900 C 124.975 240.515,124.893 240.830,124.893 241.600 M93.693 242.400 C 93.693 243.170,93.775 243.485,93.876 243.100 C 93.976 242.715,93.976 242.085,93.876 241.700 C 93.775 241.315,93.693 241.630,93.693 242.400 M196.832 241.640 C 196.792 242.438,197.589 244.868,198.059 245.385 C 198.252 245.596,198.151 244.966,197.836 243.985 C 196.817 240.810,196.867 240.926,196.832 241.640 M215.500 243.089 C 216.215 243.178,217.385 243.178,218.100 243.089 C 218.815 243.001,218.230 242.928,216.800 242.928 C 215.370 242.928,214.785 243.001,215.500 243.089 M125.301 244.600 C 125.305 245.480,125.387 245.793,125.483 245.295 C 125.579 244.798,125.575 244.078,125.475 243.695 C 125.375 243.313,125.296 243.720,125.301 244.600 M93.293 245.200 C 93.293 245.970,93.375 246.285,93.476 245.900 C 93.576 245.515,93.576 244.885,93.476 244.500 C 93.375 244.115,93.293 244.430,93.293 245.200 M125.701 247.800 C 125.705 248.680,125.787 248.993,125.883 248.495 C 125.979 247.998,125.975 247.278,125.875 246.895 C 125.775 246.513,125.696 246.920,125.701 247.800 M106.893 248.000 C 106.893 248.770,106.975 249.085,107.076 248.700 C 107.176 248.315,107.176 247.685,107.076 247.300 C 106.975 246.915,106.893 247.230,106.893 248.000 M49.130 249.500 C 49.561 250.105,50.328 250.960,50.834 251.400 C 51.340 251.840,51.051 251.345,50.192 250.300 C 48.473 248.208,47.903 247.779,49.130 249.500 M106.493 251.200 C 106.493 251.970,106.575 252.285,106.676 251.900 C 106.776 251.515,106.776 250.885,106.676 250.500 C 106.575 250.115,106.493 250.430,106.493 251.200 M176.815 251.400 C 176.817 251.620,177.186 252.250,177.636 252.800 C 178.179 253.464,178.315 253.531,178.040 253.000 C 177.366 251.695,176.812 250.972,176.815 251.400 M106.032 253.491 C 106.000 254.373,105.928 254.383,98.900 254.501 L 91.800 254.620 98.913 254.710 C 106.285 254.803,106.895 254.671,106.269 253.113 C 106.156 252.831,106.049 253.001,106.032 253.491 M227.600 253.800 C 226.610 254.330,225.942 254.772,226.116 254.782 C 226.541 254.806,229.600 253.234,229.600 252.992 C 229.600 252.727,229.617 252.720,227.600 253.800 M126.528 253.800 C 126.649 254.972,140.821 255.280,140.768 254.109 C 140.750 253.690,140.654 253.605,140.535 253.900 C 140.176 254.789,126.917 254.598,126.652 253.700 C 126.492 253.156,126.464 253.178,126.528 253.800 M178.749 254.510 C 178.920 254.681,182.017 254.770,185.630 254.709 L 192.200 254.598 185.319 254.399 C 181.534 254.290,178.578 254.340,178.749 254.510 M64.500 256.294 C 65.545 256.376,67.255 256.376,68.300 256.294 C 69.345 256.212,68.490 256.144,66.400 256.144 C 64.310 256.144,63.455 256.212,64.500 256.294 M215.500 256.293 C 216.435 256.377,217.965 256.377,218.900 256.293 C 219.835 256.209,219.070 256.140,217.200 256.140 C 215.330 256.140,214.565 256.209,215.500 256.293 M377.032 257.398 C 378.114 257.947,379.090 258.392,379.200 258.386 C 379.667 258.361,376.148 256.404,375.632 256.402 C 375.320 256.401,375.950 256.849,377.032 257.398 M367.667 258.300 C 366.830 259.135,366.704 259.336,367.382 258.753 C 368.052 258.177,368.960 257.507,369.400 257.265 C 369.840 257.023,369.968 256.819,369.685 256.812 C 369.401 256.805,368.493 257.475,367.667 258.300 M372.100 257.887 C 372.705 257.978,373.695 257.978,374.300 257.887 C 374.905 257.795,374.410 257.720,373.200 257.720 C 371.990 257.720,371.495 257.795,372.100 257.887 M369.144 258.824 L 368.200 259.647 369.400 258.945 C 370.979 258.020,371.003 258.000,370.511 258.000 C 370.279 258.000,369.664 258.371,369.144 258.824 M375.633 258.121 C 375.725 258.188,376.340 258.558,377.000 258.945 L 378.200 259.647 377.256 258.824 C 376.736 258.371,376.121 258.000,375.889 258.000 C 375.657 258.000,375.542 258.054,375.633 258.121 M375.178 260.441 C 375.717 260.656,376.355 260.960,376.597 261.116 C 376.840 261.272,376.694 261.085,376.275 260.700 C 375.855 260.315,375.216 260.011,374.856 260.025 C 374.441 260.041,374.560 260.194,375.178 260.441 M365.188 261.222 C 364.946 261.674,364.807 262.222,364.880 262.439 C 364.952 262.657,365.218 262.287,365.471 261.617 C 365.997 260.225,365.839 260.005,365.188 261.222 M366.374 262.268 C 366.151 262.856,366.020 263.606,366.084 263.936 C 366.148 264.265,366.400 263.784,366.644 262.867 C 367.145 260.990,366.990 260.648,366.374 262.268 M371.600 261.920 C 371.600 262.096,372.230 262.166,373.000 262.076 C 373.770 261.986,374.400 261.842,374.400 261.756 C 374.400 261.670,373.770 261.600,373.000 261.600 C 372.230 261.600,371.600 261.744,371.600 261.920 M364.509 264.800 C 364.509 265.790,364.587 266.195,364.682 265.700 C 364.778 265.205,364.778 264.395,364.682 263.900 C 364.587 263.405,364.509 263.810,364.509 264.800 M381.709 264.800 C 381.709 265.790,381.787 266.195,381.882 265.700 C 381.978 265.205,381.978 264.395,381.882 263.900 C 381.787 263.405,381.709 263.810,381.709 264.800 M374.980 264.373 C 374.771 264.579,373.880 264.818,373.000 264.906 L 371.400 265.066 373.051 265.133 C 374.099 265.175,374.884 264.981,375.200 264.600 C 375.746 263.942,375.587 263.777,374.980 264.373 M366.041 265.920 C 366.001 266.809,367.010 269.200,367.424 269.200 C 367.536 269.200,367.411 268.795,367.145 268.300 C 366.879 267.805,366.531 266.860,366.371 266.200 C 366.135 265.219,366.074 265.168,366.041 265.920 M365.723 269.429 C 366.066 270.105,366.651 270.910,367.022 271.218 C 367.393 271.526,367.215 271.068,366.626 270.200 C 365.233 268.148,364.948 267.905,365.723 269.429 M369.549 269.300 C 369.851 269.685,370.481 269.979,370.949 269.954 C 371.757 269.910,371.760 269.897,371.000 269.711 C 370.560 269.602,369.930 269.308,369.600 269.057 C 369.078 268.660,369.072 268.691,369.549 269.300 M372.105 273.487 C 372.714 273.579,373.614 273.577,374.105 273.482 C 374.597 273.387,374.100 273.311,373.000 273.314 C 371.900 273.317,371.497 273.395,372.105 273.487 " stroke="none" fill="#7cbce4" fill-rule="evenodd"></path><path id="path7" d="M319.200 204.200 C 319.200 204.530,319.380 204.800,319.600 204.800 C 319.820 204.800,320.000 204.530,320.000 204.200 C 320.000 203.870,319.820 203.600,319.600 203.600 C 319.380 203.600,319.200 203.870,319.200 204.200 M303.417 253.572 C 303.144 254.014,303.775 254.492,304.144 254.122 C 304.525 253.742,304.454 253.200,304.024 253.200 C 303.817 253.200,303.544 253.368,303.417 253.572 " stroke="none" fill="#0476cc" fill-rule="evenodd"></path><path id="path8" d="M109.100 140.289 C 109.815 140.378,110.985 140.378,111.700 140.289 C 112.415 140.201,111.830 140.128,110.400 140.128 C 108.970 140.128,108.385 140.201,109.100 140.289 M146.252 140.316 C 146.144 140.490,146.718 140.567,147.528 140.487 C 149.742 140.269,150.005 140.067,148.124 140.032 C 147.202 140.014,146.359 140.142,146.252 140.316 M294.500 140.276 C 294.885 140.376,295.515 140.376,295.900 140.276 C 296.285 140.175,295.970 140.093,295.200 140.093 C 294.430 140.093,294.115 140.175,294.500 140.276 M106.093 151.600 C 106.093 152.370,106.175 152.685,106.276 152.300 C 106.376 151.915,106.376 151.285,106.276 150.900 C 106.175 150.515,106.093 150.830,106.093 151.600 M306.920 155.200 C 306.920 156.410,306.995 156.905,307.087 156.300 C 307.178 155.695,307.178 154.705,307.087 154.100 C 306.995 153.495,306.920 153.990,306.920 155.200 M73.368 163.800 C 73.368 168.200,73.426 170.055,73.498 167.921 C 73.570 165.788,73.570 162.188,73.499 159.921 C 73.427 157.655,73.368 159.400,73.368 163.800 M210.969 164.800 C 210.969 169.310,211.027 171.155,211.098 168.900 C 211.170 166.645,211.170 162.955,211.098 160.700 C 211.027 158.445,210.969 160.290,210.969 164.800 M238.163 164.400 C 238.163 168.030,238.223 169.515,238.298 167.700 C 238.372 165.885,238.372 162.915,238.298 161.100 C 238.223 159.285,238.163 160.770,238.163 164.400 M80.313 171.895 C 81.476 171.976,83.276 171.976,84.313 171.893 C 85.351 171.811,84.400 171.745,82.200 171.746 C 80.000 171.747,79.151 171.814,80.313 171.895 M238.000 172.733 C 238.000 172.990,237.505 173.225,236.900 173.254 C 235.890 173.304,235.878 173.324,236.746 173.488 C 237.719 173.673,238.760 173.027,238.273 172.540 C 238.123 172.390,238.000 172.477,238.000 172.733 M224.100 173.476 C 224.485 173.576,225.115 173.576,225.500 173.476 C 225.885 173.375,225.570 173.293,224.800 173.293 C 224.030 173.293,223.715 173.375,224.100 173.476 M228.900 173.476 C 229.285 173.576,229.915 173.576,230.300 173.476 C 230.685 173.375,230.370 173.293,229.600 173.293 C 228.830 173.293,228.515 173.375,228.900 173.476 M316.305 180.283 C 316.802 180.379,317.522 180.375,317.905 180.275 C 318.287 180.175,317.880 180.096,317.000 180.101 C 316.120 180.105,315.807 180.187,316.305 180.283 M308.520 187.898 C 310.455 187.972,313.515 187.971,315.320 187.897 C 317.124 187.823,315.540 187.763,311.800 187.764 C 308.060 187.764,306.584 187.825,308.520 187.898 M328.300 187.882 C 328.795 187.978,329.605 187.978,330.100 187.882 C 330.595 187.787,330.190 187.709,329.200 187.709 C 328.210 187.709,327.805 187.787,328.300 187.882 M113.701 191.800 C 113.705 192.680,113.787 192.993,113.883 192.495 C 113.979 191.998,113.975 191.278,113.875 190.895 C 113.775 190.513,113.696 190.920,113.701 191.800 M299.315 195.096 C 300.588 195.176,302.568 195.175,303.715 195.094 C 304.862 195.014,303.820 194.949,301.400 194.950 C 298.980 194.951,298.042 195.016,299.315 195.096 M98.093 208.800 C 98.093 209.570,98.175 209.885,98.276 209.500 C 98.376 209.115,98.376 208.485,98.276 208.100 C 98.175 207.715,98.093 208.030,98.093 208.800 M237.777 228.200 C 237.777 234.580,237.832 237.134,237.899 233.876 C 237.967 230.617,237.966 225.397,237.899 222.276 C 237.831 219.154,237.776 221.820,237.777 228.200 M196.000 221.891 C 195.999 222.061,199.230 222.147,203.180 222.083 L 210.361 221.965 210.509 224.283 L 210.657 226.600 210.629 224.200 L 210.600 221.800 203.300 221.691 C 199.285 221.631,196.000 221.721,196.000 221.891 M73.378 223.713 C 73.270 223.995,73.231 227.550,73.292 231.613 L 73.402 239.000 73.601 231.100 C 73.796 223.352,73.776 222.677,73.378 223.713 M210.544 231.200 C 210.544 233.290,210.612 234.145,210.694 233.100 C 210.776 232.055,210.776 230.345,210.694 229.300 C 210.612 228.255,210.544 229.110,210.544 231.200 M137.693 232.000 C 137.693 232.770,137.775 233.085,137.876 232.700 C 137.976 232.315,137.976 231.685,137.876 231.300 C 137.775 230.915,137.693 231.230,137.693 232.000 M196.093 237.600 C 196.093 238.370,196.175 238.685,196.276 238.300 C 196.376 237.915,196.376 237.285,196.276 236.900 C 196.175 236.515,196.093 236.830,196.093 237.600 M160.901 250.600 C 160.905 251.480,160.987 251.793,161.083 251.295 C 161.179 250.798,161.175 250.078,161.075 249.695 C 160.975 249.313,160.896 249.720,160.901 250.600 M371.693 263.600 C 371.693 264.370,371.775 264.685,371.876 264.300 C 371.976 263.915,371.976 263.285,371.876 262.900 C 371.775 262.515,371.693 262.830,371.693 263.600 M369.320 264.800 C 369.320 266.010,369.395 266.505,369.487 265.900 C 369.578 265.295,369.578 264.305,369.487 263.700 C 369.395 263.095,369.320 263.590,369.320 264.800 M377.094 265.303 L 376.388 266.600 377.194 265.656 C 377.880 264.852,378.246 263.994,377.900 264.003 C 377.845 264.004,377.482 264.589,377.094 265.303 M381.646 266.867 C 381.621 267.234,381.496 267.864,381.370 268.267 C 381.152 268.962,381.163 268.963,381.597 268.287 C 381.848 267.896,381.973 267.266,381.873 266.887 C 381.711 266.268,381.688 266.266,381.646 266.867 M371.701 268.600 C 371.705 269.480,371.787 269.793,371.883 269.295 C 371.979 268.798,371.975 268.078,371.875 267.695 C 371.775 267.313,371.696 267.720,371.701 268.600 " stroke="none" fill="#348cc4" fill-rule="evenodd"></path></g></svg>