<?xml version="1.0" standalone="no"?>
<!DOCTYPE svg PUBLIC "-//W3C//DTD SVG 20010904//EN"
 "http://www.w3.org/TR/2001/REC-SVG-20010904/DTD/svg10.dtd">
<svg version="1.0" xmlns="http://www.w3.org/2000/svg"
 width="529.000000pt" height="265.000000pt" viewBox="0 0 529.000000 265.000000"
 preserveAspectRatio="xMidYMid meet">
<metadata>
Created by potrace 1.16, written by Peter Selinger 2001-2019
</metadata>
<g transform="translate(0.000000,265.000000) scale(0.100000,-0.100000)"
fill="#000000" stroke="none">
<path d="M0 1325 l0 -1325 2645 0 2645 0 0 1325 0 1325 -2645 0 -2645 0 0
-1325z m970 230 l5 -430 28 -57 c52 -105 143 -161 262 -161 124 0 225 66 278
181 21 45 22 61 25 475 l3 427 89 0 90 0 0 -615 0 -615 -90 0 -90 0 0 57 0 57
-27 -26 c-100 -92 -272 -131 -416 -93 -158 41 -261 135 -319 291 -21 57 -22
75 -26 488 -2 235 -1 435 2 442 4 12 24 14 93 12 l88 -3 5 -430z m1098 211 l2
-218 35 27 c19 14 65 40 103 58 92 43 219 50 320 18 311 -101 428 -478 227
-733 -82 -105 -202 -166 -341 -175 -102 -7 -194 18 -280 76 l-59 40 -3 -50 -3
-49 -90 0 -89 0 0 615 0 616 88 -3 87 -3 3 -219z m1482 -124 c110 -43 207
-140 250 -251 15 -37 24 -88 27 -148 l6 -93 -362 0 c-409 0 -381 7 -337 -85
24 -53 82 -112 138 -141 21 -11 64 -19 119 -22 102 -5 164 16 225 79 21 21 42
39 46 39 15 0 118 -82 118 -93 0 -22 -104 -108 -164 -136 -253 -120 -547 -14
-654 235 -34 80 -42 218 -17 310 41 153 176 285 332 324 64 16 211 6 273 -18z
m830 -62 l0 -80 -42 0 c-66 0 -116 -18 -158 -56 -65 -59 -70 -88 -70 -406 l0
-278 -90 0 -90 0 0 445 0 445 90 0 90 0 0 -47 0 -47 33 31 c47 46 112 73 180
73 l57 0 0 -80z"/>
<path d="M2325 1510 c-63 -9 -119 -37 -169 -86 -151 -147 -104 -410 89 -500
78 -37 182 -34 264 7 311 156 161 627 -184 579z"/>
<path d="M3308 1506 c-49 -13 -63 -21 -116 -70 -33 -30 -62 -78 -76 -123 l-7
-23 271 0 272 0 -7 28 c-20 84 -97 160 -188 187 -60 18 -86 18 -149 1z"/>
</g>
</svg>
