<?xml version="1.0" standalone="no"?>
<!DOCTYPE svg PUBLIC "-//W3C//DTD SVG 20010904//EN"
 "http://www.w3.org/TR/2001/REC-SVG-20010904/DTD/svg10.dtd">
<svg version="1.0" xmlns="http://www.w3.org/2000/svg"
 width="200.000000pt" height="200.000000pt" viewBox="0 0 200.000000 200.000000"
 preserveAspectRatio="xMidYMid meet">
<metadata>
Created by potrace 1.16, written by Peter Selinger 2001-2019
</metadata>
<g transform="translate(0.000000,200.000000) scale(0.100000,-0.100000)"
fill="#000000" stroke="none">
<path d="M66 1664 c-3 -8 -6 -264 -6 -568 0 -416 3 -555 12 -564 9 -9 108 -12
385 -12 l373 0 0 -70 0 -69 -82 -3 -83 -3 0 -35 0 -35 333 -3 332 -2 0 40 0
40 -85 0 -85 0 0 70 0 70 374 0 c303 0 376 3 385 14 8 9 10 169 9 577 l-3 564
-926 3 c-839 2 -927 1 -933 -14z m1734 -504 l0 -400 -805 0 -805 0 0 400 0
400 805 0 805 0 0 -400z"/>
<path d="M1164 1440 c-41 -16 -66 -60 -62 -112 3 -44 0 -51 -55 -117 -55 -68
-60 -71 -103 -72 -24 -1 -48 -2 -54 -3 -5 -1 -35 19 -65 43 -47 38 -55 49 -55
78 0 51 -45 93 -100 93 -23 0 -50 -5 -61 -10 -28 -16 -50 -65 -48 -109 2 -33
-4 -46 -40 -87 -37 -42 -47 -48 -76 -45 -127 10 -175 -177 -58 -226 94 -39
190 43 163 138 -8 28 -5 36 31 79 38 45 44 48 97 52 55 5 59 4 105 -34 43 -37
47 -43 47 -85 0 -38 5 -50 34 -79 29 -29 41 -34 81 -34 40 0 52 5 82 35 32 32
34 38 31 93 l-3 59 60 69 c55 63 63 70 99 71 31 0 46 7 68 32 77 87 -11 215
-118 171z"/>
<path d="M1410 1045 l0 -175 60 0 60 0 0 175 0 175 -60 0 -60 0 0 -175z"/>
<path d="M1250 1005 l0 -135 60 0 60 0 0 135 0 135 -60 0 -60 0 0 -135z"/>
<path d="M1570 975 l0 -105 60 0 60 0 0 105 0 105 -60 0 -60 0 0 -105z"/>
</g>
</svg>
